<svg xmlns="http://www.w3.org/2000/svg" width="72" height="72" viewBox="0 0 72 72">
  <g id="justice" transform="translate(43 8.968)">
    <path id="Path_539" data-name="Path 539" d="M52.419,68.828v2.759H19.312V68.828a2.763,2.763,0,0,1,2.759-2.759h5.554a8.232,8.232,0,0,1,5.482-7.419V26.3a5.172,5.172,0,0,1-2.428-4.378H41.052A5.172,5.172,0,0,1,38.624,26.3V58.647a8.232,8.232,0,0,1,5.482,7.419H49.66A2.768,2.768,0,0,1,52.419,68.828ZM71.731,43.995a14.607,14.607,0,0,1-27.589,0h3.184l9.32-24.7a1.436,1.436,0,0,1,2.582,0l9.32,24.7Zm-6.133,0-7.661-20.3L50.275,44H65.6Zm-51.8-27.559a2.75,2.75,0,0,0,2.621-1.97,30.3,30.3,0,0,0,2.809-1.3c2.111-1.065,4.5-2.276,6.986-2.276a6.167,6.167,0,0,1,4.726,2.039,5.176,5.176,0,0,0-.072.72,5,5,0,1,0,10,0,5.136,5.136,0,0,0-.072-.717,6.167,6.167,0,0,1,4.726-2.042C48,10.888,50.4,12.1,52.5,13.162a30.681,30.681,0,0,0,2.811,1.3,2.75,2.75,0,0,0,2.621,1.97,2.787,2.787,0,1,0-2.011-4.7c-.681-.287-1.418-.654-2.177-1.037-2.384-1.206-5.085-2.571-8.227-2.571A8.823,8.823,0,0,0,39.56,10.3a4.984,4.984,0,0,0-2.174-1.4,3.238,3.238,0,0,0,1.752-2.847c0-1.807-3.272-6.025-3.272-6.025S32.594,4.25,32.594,6.057A3.235,3.235,0,0,0,34.345,8.9a4.959,4.959,0,0,0-2.174,1.4,8.823,8.823,0,0,0-5.962-2.171c-3.142,0-5.846,1.366-8.23,2.571-.759.386-1.493.753-2.174,1.037a2.782,2.782,0,1,0-2.011,4.7Zm0,37.364A14.66,14.66,0,0,1,0,44H3.184L12.5,19.3a1.436,1.436,0,0,1,2.582,0L24.405,44h3.184A14.66,14.66,0,0,1,13.794,53.8Zm7.661-9.805-7.661-20.3L6.133,44H21.456Z" transform="translate(-43 -9)" fill="#036"/>
    <rect id="Rectangle_1" data-name="Rectangle 1" width="72" height="72" transform="translate(-43 -8.968)" fill="none"/>
  </g>
</svg>
