<svg xmlns="http://www.w3.org/2000/svg" width="480" height="110.209" viewBox="0 0 480 110.209">
  <path id="logo" d="M423.558,110.158l-1.1-.205v-2.4l.8.066a3.942,3.942,0,0,0,2.338-.608,4.431,4.431,0,0,0,1.382-2.218l.654-1.758-6.163-17.08h3.225L429,98.9l4.026-12.945h3.159L429.241,105.9q-1.608,4.309-5.122,4.313Zm46.117-7.344a6,6,0,0,1-2.5-2.048,4.953,4.953,0,0,1-.9-2.849h2.954a3.064,3.064,0,0,0,1.188,2.354,4.608,4.608,0,0,0,2.93.871,4.769,4.769,0,0,0,2.69-.681,2.088,2.088,0,0,0,1.01-1.812,2.172,2.172,0,0,0-.9-1.858A8.769,8.769,0,0,0,473,95.649a14.7,14.7,0,0,1-3.558-1.15A5.038,5.038,0,0,1,467.5,92.9a3.81,3.81,0,0,1-.631-2.2,4.473,4.473,0,0,1,1.8-3.592,7,7,0,0,1,4.587-1.467,7.2,7.2,0,0,1,4.765,1.518,4.81,4.81,0,0,1,1.827,3.875h-2.969a2.678,2.678,0,0,0-1.03-2.09,3.853,3.853,0,0,0-2.594-.875,4.022,4.022,0,0,0-2.52.7,2.207,2.207,0,0,0-.91,1.835,1.794,1.794,0,0,0,.844,1.614,10.57,10.57,0,0,0,3.058,1.037,15.92,15.92,0,0,1,3.581,1.181,5.184,5.184,0,0,1,2.036,1.653A4.06,4.06,0,0,1,480,98.444a4.414,4.414,0,0,1-1.85,3.709,7.759,7.759,0,0,1-4.8,1.4A8.651,8.651,0,0,1,469.676,102.815Zm-29.611-1.572a8.56,8.56,0,0,1-2.2-6.167V94.53a10.368,10.368,0,0,1,.979-4.587,7.632,7.632,0,0,1,2.749-3.159,6.881,6.881,0,0,1,3.821-1.142,6.475,6.475,0,0,1,5.238,2.218,9.618,9.618,0,0,1,1.866,6.353v1.231h-11.7a6.13,6.13,0,0,0,1.49,4.123,4.692,4.692,0,0,0,3.631,1.576,5.144,5.144,0,0,0,2.652-.639,6.66,6.66,0,0,0,1.9-1.692l1.8,1.4a7.247,7.247,0,0,1-6.511,3.337A7.531,7.531,0,0,1,440.065,101.243Zm2.346-11.873a6.333,6.333,0,0,0-1.5,3.647h8.652v-.225a5.619,5.619,0,0,0-1.212-3.488,3.71,3.71,0,0,0-2.938-1.235A3.937,3.937,0,0,0,442.411,89.37Zm-60.263,12.736a4.671,4.671,0,0,1-1.638-3.662,4.887,4.887,0,0,1,2.052-4.193,9.666,9.666,0,0,1,5.768-1.49h2.876V91.4a3.313,3.313,0,0,0-.929-2.466,3.716,3.716,0,0,0-2.729-.917,4.311,4.311,0,0,0-2.648.8,2.357,2.357,0,0,0-1.068,1.932h-2.969a4.082,4.082,0,0,1,.917-2.5,6.241,6.241,0,0,1,2.489-1.908,8.374,8.374,0,0,1,3.457-.7,6.83,6.83,0,0,1,4.676,1.49,5.388,5.388,0,0,1,1.754,4.111v7.948a9.761,9.761,0,0,0,.608,3.786v.256h-3.1a6.156,6.156,0,0,1-.414-1.819,6.6,6.6,0,0,1-4.916,2.137A6.082,6.082,0,0,1,382.148,102.106Zm1.316-4.08a2.675,2.675,0,0,0,.925,2.172,3.546,3.546,0,0,0,2.377.782,5.232,5.232,0,0,0,2.636-.716,4.382,4.382,0,0,0,1.8-1.87V94.852h-2.315Q383.462,94.852,383.464,98.026Zm72.465,5.207V85.96h2.876l.046,2a4.6,4.6,0,0,1,4.119-2.315,2.989,2.989,0,0,1,1.308.225v2.745a8.984,8.984,0,0,0-1.452-.112,3.893,3.893,0,0,0-3.945,2.474v12.26Zm-43,0-4.2-13.088-4.088,13.088h-2.392L397.238,85.96h2.938l3.4,12.93L407.6,85.96h2.381l4.1,13.2,3.321-13.2h2.954l-5.029,17.273Zm-49.048,0V79.99h3.078v20.734h11.014v2.509Zm82.487-44.341q-4.976-6.469-4.978-16.886v-.588q0-10.458,4.955-16.824a15.68,15.68,0,0,1,12.98-6.364q7.984,0,12.643,5.462V0h7.773V64.521H472.6l-.376-4.874q-4.663,5.714-12.98,5.714A15.524,15.524,0,0,1,446.367,58.892Zm5.985-29.657q-3.194,4.413-3.194,13.065,0,7.729,3.194,12.1a10.322,10.322,0,0,0,8.822,4.367,11.332,11.332,0,0,0,10.793-6.635V31.252a11.417,11.417,0,0,0-10.712-6.426A10.376,10.376,0,0,0,452.352,29.235Zm-101.924,29.7q-5.731-6.428-5.733-17.014v-.546a26.839,26.839,0,0,1,2.625-12.012,19.563,19.563,0,0,1,7.309-8.234,19.9,19.9,0,0,1,10.688-2.9,19.185,19.185,0,0,1,15.02,6.426q5.731,6.428,5.733,17.1V42.3a27.058,27.058,0,0,1-2.543,11.908,19.259,19.259,0,0,1-7.266,8.211A20.142,20.142,0,0,1,365.4,65.361,19.126,19.126,0,0,1,350.428,58.935Zm5.605-29.742q-3.525,4.582-3.527,13.108,0,7.56,3.507,12.136a11.886,11.886,0,0,0,18.8-.062q3.484-4.64,3.484-13,0-7.479-3.55-12.117a11.8,11.8,0,0,0-18.713-.066ZM255.494,61.56a12.309,12.309,0,0,1-4.3-9.643,12.856,12.856,0,0,1,5.4-11.025q5.4-3.925,15.187-3.925h7.56V33.393A8.736,8.736,0,0,0,276.9,26.9q-2.439-2.416-7.185-2.416a11.349,11.349,0,0,0-6.972,2.1,6.191,6.191,0,0,0-2.814,5.083h-7.812a10.72,10.72,0,0,1,2.416-6.573,16.481,16.481,0,0,1,6.55-5.017,22.017,22.017,0,0,1,9.1-1.85q7.851,0,12.306,3.929T287.1,32.975V53.891a25.574,25.574,0,0,0,1.6,9.957v.674h-8.149a16.275,16.275,0,0,1-1.092-4.789,17.341,17.341,0,0,1-12.938,5.629A16.062,16.062,0,0,1,255.494,61.56Zm3.469-10.735a7.065,7.065,0,0,0,2.435,5.714,9.367,9.367,0,0,0,6.26,2.059,13.638,13.638,0,0,0,6.929-1.893,11.415,11.415,0,0,0,4.746-4.913V42.467h-6.089Q258.959,42.467,258.963,50.825ZM210.318,62.945a19.809,19.809,0,0,1-8.42-6.616,16.155,16.155,0,0,1-2.961-9.535h8.106a10.531,10.531,0,0,0,4.1,8.757q4.094,3.211,10.944,3.213,6.382,0,9.786-2.605a8.451,8.451,0,0,0,3.4-7.1,8.311,8.311,0,0,0-3.151-6.953q-3.153-2.456-11.424-4.851-10.377-2.985-15.1-7.332A14.005,14.005,0,0,1,200.868,19.2a14.792,14.792,0,0,1,5.776-11.95Q212.422,2.52,221.66,2.52A25.093,25.093,0,0,1,232.9,4.955a18.521,18.521,0,0,1,7.646,6.72,17.209,17.209,0,0,1,2.706,9.368h-8.106a11.187,11.187,0,0,0-3.527-8.745q-3.531-3.182-9.957-3.182-5.964,0-9.3,2.629a8.778,8.778,0,0,0-3.341,7.3,7.9,7.9,0,0,0,3.171,6.333q3.17,2.59,10.8,4.734a50.177,50.177,0,0,1,11.931,4.731,18.121,18.121,0,0,1,6.384,6.027,15.382,15.382,0,0,1,2.079,8.106,14.29,14.29,0,0,1-5.8,11.908q-5.8,4.471-15.5,4.475A28.767,28.767,0,0,1,210.318,62.945Zm-51.936-3.72Q152.1,53.093,152.1,42.889V41.712a27.437,27.437,0,0,1,2.648-12.245,19.418,19.418,0,0,1,7.5-8.319,21.06,21.06,0,0,1,11.068-2.919q9.326,0,14.68,5.88t5.358,16.677v4.955H164.409a11.274,11.274,0,0,0,3.55,7.142,10.715,10.715,0,0,0,7.495,2.687,13.1,13.1,0,0,0,10.963-5.079l5.966,6.678a18.25,18.25,0,0,1-7.394,6.027,24.264,24.264,0,0,1-10.332,2.164Q164.663,65.361,158.382,59.225Zm9.028-28.759a12.673,12.673,0,0,0-2.876,7h16.886V36.5a9.019,9.019,0,0,0-2.183-6.264,7.821,7.821,0,0,0-5.965-2.218A7.584,7.584,0,0,0,167.409,30.466Zm-54.793,28.7q-5.633-6.2-5.629-17.115v-.8q0-10.5,5.586-16.758t15.33-6.26q8.53,0,13.673,4.851T146.807,36H135.426a8.349,8.349,0,0,0-2.187-5.764,8.116,8.116,0,0,0-11.95.875q-2.16,3.1-2.16,10.034V42.4q0,7.026,2.141,10.1a7.4,7.4,0,0,0,6.511,3.07,7.954,7.954,0,0,0,5.458-1.847,6.475,6.475,0,0,0,2.187-4.913h11.381a15.56,15.56,0,0,1-2.52,8.462A16.661,16.661,0,0,1,137.5,63.24a21.259,21.259,0,0,1-9.515,2.121Q118.245,65.361,112.617,59.163ZM423.79,64.521V34.446q-.046-4.918-2.249-7.27t-6.867-2.35a11.191,11.191,0,0,0-6.635,2.017,13.7,13.7,0,0,0-4.456,5.292V64.521h-7.769V19.069h7.351l.252,5.714a16.559,16.559,0,0,1,13.611-6.554q14.407,0,14.532,16.255V64.521Zm-96.528,0V34.446q-.041-4.918-2.249-7.27t-6.867-2.35a11.191,11.191,0,0,0-6.635,2.017,13.656,13.656,0,0,0-4.452,5.292V64.521h-7.773V19.069h7.351l.252,5.714A16.559,16.559,0,0,1,320.5,18.229q14.407,0,14.532,16.255V64.521Zm-240.563,0V19.069H98.882V64.521Zm-32.007,0V19.069H66.159l.337,5.42q3.652-6.26,10.123-6.26a12.718,12.718,0,0,1,3.778.546L80.23,30.455a32.922,32.922,0,0,0-4.371-.337q-6.887,0-9.031,4.661V64.521ZM0,64.521V3.36H23.858A27.612,27.612,0,0,1,35.979,5.88a18.6,18.6,0,0,1,8.044,7.162,19.99,19.99,0,0,1,2.814,10.564q0,8.989-6.155,14.176T23.649,42.97H12.6V64.521ZM12.6,32.766H23.858q5,0,7.626-2.354a8.557,8.557,0,0,0,2.625-6.72,10.08,10.08,0,0,0-2.648-7.266,9.871,9.871,0,0,0-7.309-2.857H12.6Zm75.252-20.92a5.964,5.964,0,0,1-1.87-4.537A5.989,5.989,0,0,1,87.81,2.814a7.875,7.875,0,0,1,9.937,0,5.948,5.948,0,0,1,1.847,4.494,5.964,5.964,0,0,1-1.87,4.537,7.783,7.783,0,0,1-9.872,0Z" fill="#036"/>
</svg>
